<svg width="100" height="100" viewBox="0 0 100 100" fill="none" xmlns="http://www.w3.org/2000/svg">
<rect width="100" height="100" fill="black"/>
<rect x="2.63086" y="2.63159" width="94.7368" height="94.7368" fill="#1B7FF2"/>
<rect x="24.3418" y="24.342" width="51.3158" height="51.3158" fill="black"/>
<path d="M32.4944 85.3729C31.8166 85.8595 31.0345 86.0855 30.1134 86.0855C28.0104 86.0855 26.481 84.6082 26.481 82.3836C26.481 80.1764 28.0104 78.6991 30.1134 78.6991C31.1909 78.6991 32.112 79.0815 32.7724 79.8288L33.6936 79.0293C32.7377 78.0039 31.469 77.5347 30.096 77.5347C27.2457 77.5347 25.1602 79.5681 25.1602 82.3836C25.1602 85.2165 27.2283 87.2673 30.096 87.2673C30.9997 87.2673 31.7992 87.0935 32.4944 86.7111V90.0654H33.7283V82.6095H32.4944V85.3729Z" fill="#17191B"/>
<path d="M32.4944 85.3729C31.8166 85.8595 31.0345 86.0855 30.1134 86.0855C28.0104 86.0855 26.481 84.6082 26.481 82.3836C26.481 80.1764 28.0104 78.6991 30.1134 78.6991C31.1909 78.6991 32.112 79.0815 32.7724 79.8288L33.6936 79.0293C32.7377 78.0039 31.469 77.5347 30.096 77.5347C27.2457 77.5347 25.1602 79.5681 25.1602 82.3836C25.1602 85.2165 27.2283 87.2673 30.096 87.2673C30.9997 87.2673 31.7992 87.0935 32.4944 86.7111V90.0654H33.7283V82.6095H32.4944V85.3729Z" fill="black" fill-opacity="0.2"/>
<path d="M37.2083 87.0935V81.7058C37.2083 79.7071 38.1121 78.7165 39.6589 78.7165C40.7016 78.7165 41.5011 79.2553 41.8139 79.5681L42.5439 78.647C41.9877 78.1082 40.9797 77.5347 39.5893 77.5347C37.4517 77.5347 35.9049 79.1162 35.9049 81.6536V87.0935H37.2083Z" fill="#17191B"/>
<path d="M37.2083 87.0935V81.7058C37.2083 79.7071 38.1121 78.7165 39.6589 78.7165C40.7016 78.7165 41.5011 79.2553 41.8139 79.5681L42.5439 78.647C41.9877 78.1082 40.9797 77.5347 39.5893 77.5347C37.4517 77.5347 35.9049 79.1162 35.9049 81.6536V87.0935H37.2083Z" fill="black" fill-opacity="0.2"/>
<path d="M47.5612 87.2673C50.4462 87.2673 52.5318 85.1991 52.5318 82.3662C52.5318 79.5681 50.4462 77.5347 47.5612 77.5347C44.6935 77.5347 42.6254 79.5681 42.6254 82.3836C42.6254 85.2165 44.6935 87.2673 47.5612 87.2673ZM47.5786 86.0681C45.4582 86.0681 43.9288 84.5561 43.9288 82.3836C43.9288 80.2111 45.4582 78.7165 47.5612 78.7165C49.6815 78.7165 51.2109 80.2111 51.2109 82.3836C51.2109 84.5561 49.6815 86.0681 47.5786 86.0681Z" fill="#17191B"/>
<path d="M47.5612 87.2673C50.4462 87.2673 52.5318 85.1991 52.5318 82.3662C52.5318 79.5681 50.4462 77.5347 47.5612 77.5347C44.6935 77.5347 42.6254 79.5681 42.6254 82.3836C42.6254 85.2165 44.6935 87.2673 47.5612 87.2673ZM47.5786 86.0681C45.4582 86.0681 43.9288 84.5561 43.9288 82.3836C43.9288 80.2111 45.4582 78.7165 47.5612 78.7165C49.6815 78.7165 51.2109 80.2111 51.2109 82.3836C51.2109 84.5561 49.6815 86.0681 47.5786 86.0681Z" fill="black" fill-opacity="0.2"/>
<path d="M61.5533 82.7486C61.5533 84.9905 60.1456 86.0681 58.5292 86.0681C56.8956 86.0681 55.5052 84.9905 55.5052 82.7486V77.6911H54.2017V82.5748C54.2017 85.6336 56.1482 87.2499 58.5292 87.2499C60.945 87.2499 62.8568 85.6162 62.8568 82.5748V77.6911H61.5533V82.7486Z" fill="#17191B"/>
<path d="M61.5533 82.7486C61.5533 84.9905 60.1456 86.0681 58.5292 86.0681C56.8956 86.0681 55.5052 84.9905 55.5052 82.7486V77.6911H54.2017V82.5748C54.2017 85.6336 56.1482 87.2499 58.5292 87.2499C60.945 87.2499 62.8568 85.6162 62.8568 82.5748V77.6911H61.5533V82.7486Z" fill="black" fill-opacity="0.2"/>
<path d="M69.8903 77.5347C67.0052 77.5347 64.937 79.5855 64.937 82.5053V90.0654H66.2579V85.425C67.1095 86.6416 68.4999 87.2673 69.9771 87.2673C72.7579 87.2673 74.8435 85.2165 74.8435 82.4184C74.8435 79.6028 72.7753 77.5347 69.8903 77.5347ZM69.8903 86.0681C67.7873 86.0681 66.2579 84.5908 66.2579 82.4184C66.2579 80.2285 67.7873 78.7165 69.9076 78.7165C72.0106 78.7165 73.54 80.2285 73.54 82.401C73.54 84.5908 72.0106 86.0681 69.8903 86.0681Z" fill="#17191B"/>
<path d="M69.8903 77.5347C67.0052 77.5347 64.937 79.5855 64.937 82.5053V90.0654H66.2579V85.425C67.1095 86.6416 68.4999 87.2673 69.9771 87.2673C72.7579 87.2673 74.8435 85.2165 74.8435 82.4184C74.8435 79.6028 72.7753 77.5347 69.8903 77.5347ZM69.8903 86.0681C67.7873 86.0681 66.2579 84.5908 66.2579 82.4184C66.2579 80.2285 67.7873 78.7165 69.9076 78.7165C72.0106 78.7165 73.54 80.2285 73.54 82.401C73.54 84.5908 72.0106 86.0681 69.8903 86.0681Z" fill="black" fill-opacity="0.2"/>
<path d="M39.1742 44.8943C37.5906 44.8943 36.0636 45.5542 35.1398 46.8738V41.3501H33.707V50.0411V50.0599C33.707 53.2271 35.9505 55.4517 39.0611 55.4517C42.2095 55.4517 44.4529 53.2083 44.4529 50.1353C44.4529 47.1001 42.1906 44.8943 39.1742 44.8943ZM39.08 54.1509C36.7988 54.1509 35.1398 52.5107 35.1398 50.1542C35.1398 47.7976 36.78 46.1763 39.0611 46.1763C41.3611 46.1763 43.0201 47.7976 43.0201 50.1542C43.0201 52.5107 41.38 54.1509 39.08 54.1509Z" fill="white"/>
<path d="M62.1422 44.8943C63.7258 44.8943 65.2528 45.5542 66.1766 46.8738V41.3501H67.6094V50.0411V50.0599C67.6094 53.2271 65.3659 55.4517 62.2553 55.4517C59.1069 55.4517 56.8635 53.2083 56.8635 50.1353C56.8635 47.1001 59.1258 44.8943 62.1422 44.8943ZM62.2364 54.1509C64.5176 54.1509 66.1766 52.5107 66.1766 50.1542C66.1766 47.7976 64.5364 46.1763 62.2553 46.1763C59.9553 46.1763 58.2963 47.7976 58.2963 50.1542C58.2963 52.5107 59.9364 54.1509 62.2364 54.1509Z" fill="white"/>
<path d="M47.8667 48.8971C48.2515 48.8971 48.5476 48.5912 48.5476 48.2162C48.5476 47.8313 48.2515 47.5254 47.8667 47.5254C47.4818 47.5254 47.166 47.8313 47.166 48.2162C47.166 48.5912 47.4818 48.8971 47.8667 48.8971ZM48.4686 54.828V49.43H47.245V54.828H48.4686Z" fill="white"/>
<path d="M53.3096 52.5287C54.336 52.1635 54.9478 51.3839 54.9478 50.2688C54.9478 49.0846 54.0399 47.8116 52.1748 47.8116C50.2702 47.8116 49.382 49.203 49.382 50.6635V54.828H50.6945V52.7655H51.7603H51.9971L53.8228 54.828H55.3228L53.3096 52.5287ZM50.6945 50.6635C50.6945 49.9925 50.9018 48.9464 52.1452 48.9464C53.1221 48.9464 53.655 49.657 53.655 50.3182C53.655 51.0879 53.1024 51.6405 52.1156 51.6405H50.6945V50.6635Z" fill="white"/>
<path fill-rule="evenodd" clip-rule="evenodd" d="M58.731 56.6675L50.6333 66.5255L43.2227 56.6446L44.2753 55.8551L50.6804 64.3953L57.7143 55.8323L58.731 56.6675Z" fill="white"/>
</svg>
